<svg width="1117" height="187" viewBox="0 0 1117 187" fill="none" xmlns="http://www.w3.org/2000/svg">
<g clip-path="url(#clip0_82_112)">
<path d="M493.08 110.33C501.345 104.598 507.283 96.0951 509.817 86.362C512.352 76.6288 511.316 66.3096 506.896 57.2747C502.477 48.2399 494.967 41.0872 485.728 37.1132C476.488 33.1392 466.131 32.6068 456.533 35.6124C446.935 38.6181 438.731 44.963 433.408 53.4971C428.086 62.0312 425.997 72.1898 427.52 82.1315C429.044 92.0733 434.078 101.14 441.712 107.689C449.345 114.238 459.072 117.836 469.13 117.83C476.223 117.966 482.98 120.88 487.948 125.944C492.916 131.009 495.7 137.82 495.7 144.915C495.7 152.01 492.916 158.821 487.948 163.886C482.98 168.95 476.223 171.864 469.13 172C467.141 172 465.233 172.79 463.827 174.197C462.42 175.603 461.63 177.511 461.63 179.5C461.63 181.489 462.42 183.397 463.827 184.803C465.233 186.21 467.141 187 469.13 187C478.099 187.004 486.835 184.141 494.062 178.829C501.29 173.518 506.63 166.035 509.305 157.474C511.979 148.913 511.847 139.721 508.928 131.24C506.01 122.758 500.457 115.432 493.08 110.33ZM469.13 102.83C463.771 102.832 458.532 101.245 454.076 98.2686C449.619 95.2927 446.146 91.0619 444.094 86.1115C442.042 81.161 441.505 75.7133 442.55 70.4574C443.595 65.2015 446.175 60.3736 449.964 56.5844C453.754 52.7952 458.582 50.2149 463.837 49.17C469.093 48.125 474.541 48.6623 479.492 50.714C484.442 52.7656 488.673 56.2393 491.649 60.6958C494.625 65.1522 496.212 70.3912 496.21 75.7499C496.199 82.9288 493.343 89.8105 488.267 94.8867C483.191 99.9629 476.309 102.819 469.13 102.83Z" fill="#FF3100"/>
<path d="M474.13 60.5801C474.13 61.9062 473.603 63.1779 472.666 64.1156C471.728 65.0533 470.456 65.5801 469.13 65.5801C466.441 65.5933 463.866 66.6703 461.967 68.5758C460.069 70.4813 459.003 73.0605 459 75.7501C459 77.0762 458.473 78.3479 457.536 79.2856C456.598 80.2233 455.326 80.7501 454 80.7501C452.674 80.7501 451.402 80.2233 450.464 79.2856C449.527 78.3479 449 77.0762 449 75.7501C449.008 70.4031 451.136 65.2774 454.916 61.4965C458.697 57.7156 463.823 55.588 469.17 55.5801C470.489 55.5906 471.751 56.1221 472.68 57.0586C473.609 57.9951 474.13 59.2609 474.13 60.5801Z" fill="#FF3100"/>
<path d="M22.5 13.8H0V118.8H70.05V98.55H22.5V13.8Z" fill="black"/>
<path d="M143.32 43.2001C136.745 39.542 129.323 37.6795 121.8 37.8001C114.225 37.6674 106.748 39.5297 100.12 43.2001C93.9106 46.6596 88.7335 51.709 85.12 57.8301C81.3929 64.2711 79.5011 71.6099 79.65 79.0501C79.5093 86.5146 81.4 93.877 85.12 100.35C88.7053 106.491 93.8895 111.543 100.12 114.97C106.761 118.6 114.233 120.436 121.8 120.3C129.312 120.433 136.729 118.607 143.32 115C149.541 111.585 154.705 106.528 158.25 100.38C161.925 93.8917 163.79 86.5355 163.65 79.0801C163.797 71.6491 161.932 64.3167 158.25 57.8601C154.681 51.7205 149.524 46.6562 143.32 43.2001ZM139.57 90.6701C137.942 93.9902 135.426 96.7941 132.3 98.7701C129.154 100.735 125.509 101.752 121.8 101.7C118.042 101.766 114.345 100.749 111.15 98.7701C108.013 96.7844 105.472 93.9851 103.8 90.6701C101.968 87.0794 101.09 83.078 101.25 79.0501C101.074 74.9952 101.952 70.9638 103.8 67.3501C105.503 64.0563 108.037 61.2643 111.15 59.2501C114.33 57.3019 117.984 56.2641 121.714 56.25C125.443 56.2359 129.105 57.246 132.3 59.1701C135.421 61.1509 137.937 63.9534 139.57 67.2701C141.37 70.9322 142.271 74.9703 142.2 79.0501C142.26 83.0775 141.359 87.0612 139.57 90.6701Z" fill="black"/>
<path d="M247.12 66.0799C243.688 63.3585 239.874 61.1581 235.8 59.5499C231.015 57.6346 226.06 56.1781 221 55.1999C218.294 54.6578 215.623 53.9566 213 53.0999C210.851 52.4154 208.787 51.4859 206.85 50.3299C205.292 49.4087 203.96 48.1515 202.95 46.6499C201.963 45.0178 201.499 43.1234 201.619 41.2201C201.738 39.3168 202.437 37.4954 203.62 35.9999C205.134 34.294 207.078 33.0264 209.25 32.3299C212.007 31.4225 214.898 30.9897 217.8 31.0499C220.781 31.0504 223.742 31.5298 226.57 32.4699C229.46 33.4333 232.165 34.8806 234.57 36.7499C237.149 38.7683 239.446 41.1225 241.4 43.7499L255.6 29.9999C253.265 26.1734 250.236 22.816 246.67 20.0999C242.904 17.2924 238.663 15.1855 234.15 13.8799C228.686 12.3389 223.026 11.6044 217.35 11.6999C212.333 11.6874 207.346 12.4635 202.57 13.9999C198.117 15.3967 193.951 17.5813 190.27 20.4499C186.811 23.1473 183.973 26.5579 181.95 30.4499C179.946 34.3168 178.916 38.6146 178.95 42.9699C178.879 47.0095 179.557 51.0272 180.95 54.8199C182.324 58.3573 184.45 61.5542 187.18 64.1899C190.241 67.0838 193.807 69.392 197.7 70.9999C202.441 73.0324 207.363 74.616 212.4 75.7299C214.833 76.0946 217.238 76.6225 219.6 77.3099C221.655 77.9052 223.661 78.6574 225.6 79.5599C227.255 80.3226 228.816 81.2757 230.25 82.3999C231.49 83.3777 232.512 84.6039 233.25 85.9999C233.953 87.3699 234.313 88.89 234.3 90.4299C234.338 92.5258 233.589 94.5599 232.2 96.1299C230.629 97.8414 228.636 99.1104 226.42 99.8099C223.737 100.695 220.925 101.124 218.1 101.08C212.606 101.132 207.178 99.87 202.27 97.3999C197.423 94.9732 192.55 90.3566 187.65 83.5499L173.55 99.5499C176.715 103.816 180.477 107.605 184.72 110.8C189.022 113.994 193.857 116.398 199 117.9C204.779 119.559 210.768 120.367 216.78 120.3C223.982 120.442 231.135 119.08 237.78 116.3C243.478 113.895 248.37 109.912 251.88 104.82C255.28 99.8199 256.98 93.7699 256.98 86.6699C257.043 82.6512 256.17 78.6729 254.43 75.0499C252.684 71.5579 250.188 68.4949 247.12 66.0799Z" fill="black"/>
<path d="M303.3 19.3501H282V39.4501H267.15V58.5001H282V118.8H303.3V58.5001H319.5V39.4501H303.3V19.3501Z" fill="black"/>
<path d="M387.9 49.88C386.37 47.7843 384.579 45.8923 382.57 44.25C380.007 42.1918 377.108 40.5916 374 39.52C370.556 38.3459 366.938 37.7644 363.3 37.8C356.758 37.6993 350.334 39.5515 344.85 43.12C339.364 46.7585 334.932 51.7765 332 57.67C328.759 64.2694 327.148 71.5495 327.3 78.9C327.175 86.2704 328.785 93.5669 332 100.2C334.852 106.111 339.194 111.178 344.6 114.9C349.855 118.489 356.087 120.375 362.45 120.3C366.022 120.318 369.571 119.736 372.95 118.58C376.142 117.487 379.15 115.916 381.87 113.92C384.031 112.342 385.975 110.486 387.65 108.4V118.8H409.1V39.45H387.9V49.88ZM378.75 99C375.598 100.943 371.952 101.932 368.25 101.85C364.629 101.92 361.066 100.929 358 99C354.974 97.0299 352.551 94.2612 351 91C349.23 87.2274 348.357 83.0963 348.45 78.93C348.356 74.8248 349.23 70.7551 351 67.05C352.579 63.8073 354.996 61.0454 358 59.05C361.06 57.075 364.639 56.0583 368.28 56.13C371.976 56.0428 375.616 57.0406 378.75 59C381.779 60.967 384.203 63.7366 385.75 67C387.466 70.7273 388.304 74.7983 388.2 78.9C388.295 83.0687 387.447 87.205 385.72 91C384.209 94.2778 381.79 97.054 378.75 99Z" fill="black"/>
<path d="M550.56 39.45H529.26V118.8H550.56V39.45Z" fill="black"/>
<path d="M549.36 3.08C547.06 1.02667 543.86 0 539.76 0C535.66 0 532.487 1.07333 530.24 3.22C529.084 4.27063 528.17 5.55944 527.561 6.99756C526.951 8.43567 526.661 9.98886 526.71 11.55C526.71 15.25 527.86 18.1 530.16 20.1C532.46 22.1 535.66 23.1 539.76 23.1C543.76 23.1 546.937 22.05 549.29 19.95C550.458 18.8946 551.379 17.5947 551.987 16.1428C552.596 14.6909 552.877 13.1228 552.81 11.55C552.892 9.97145 552.626 8.39413 552.03 6.93021C551.433 5.46629 550.522 4.15173 549.36 3.08Z" fill="black"/>
<path d="M631.79 43.2001C625.142 39.6546 617.724 37.8 610.19 37.8C602.656 37.8 595.238 39.6546 588.59 43.2001C582.381 46.6596 577.204 51.709 573.59 57.8301C569.86 64.2702 567.965 71.609 568.11 79.0501C567.972 86.5155 569.867 93.878 573.59 100.35C577.175 106.491 582.36 111.543 588.59 114.97C595.252 118.471 602.664 120.3 610.19 120.3C617.716 120.3 625.128 118.471 631.79 114.97C638.008 111.554 643.169 106.497 646.71 100.35C650.385 93.8616 652.25 86.5055 652.11 79.0501C652.257 71.6191 650.392 64.2866 646.71 57.8301C643.141 51.7019 637.987 46.6482 631.79 43.2001ZM628 90.67C626.369 93.9915 623.849 96.7955 620.72 98.77C617.574 100.735 613.929 101.752 610.22 101.7C606.462 101.766 602.765 100.749 599.57 98.77C596.433 96.7844 593.892 93.985 592.22 90.67C590.388 87.0794 589.51 83.0779 589.67 79.0501C589.494 74.9951 590.372 70.9638 592.22 67.35C593.923 64.0563 596.457 61.2643 599.57 59.25C602.75 57.3018 606.404 56.2641 610.134 56.25C613.863 56.2359 617.525 57.2459 620.72 59.17C623.844 61.1502 626.363 63.9527 628 67.27C629.796 70.933 630.694 74.9711 630.62 79.0501C630.684 83.0767 629.785 87.0603 628 90.67Z" fill="black"/>
<path d="M728.84 41.3999C724.787 38.9999 719.76 37.7999 713.76 37.7999C709.415 37.788 705.118 38.7087 701.16 40.4999C697.314 42.1975 693.829 44.6141 690.89 47.6199C690.22 48.3315 689.589 49.0793 689 49.8599L688.61 39.4499H668.21V118.8H689.51V71.0999C689.49 69.0783 689.927 67.0783 690.79 65.2499C691.631 63.4514 692.797 61.824 694.23 60.4499C695.733 59.0155 697.522 57.9148 699.48 57.2199C701.623 56.4559 703.885 56.0768 706.16 56.0999C708.768 55.8264 711.399 56.3199 713.73 57.5199C715.821 58.721 717.437 60.6021 718.31 62.8499C719.393 65.7231 719.903 68.7807 719.81 71.8499V118.85H741.11V70.1999C741.11 63.0999 740.087 57.1233 738.04 52.2699C736.243 47.7389 733.012 43.9209 728.84 41.3999Z" fill="black"/>
<path d="M816.66 49.88C815.13 47.7843 813.339 45.8923 811.33 44.25C808.773 42.1938 805.881 40.5937 802.78 39.52C799.33 38.3437 795.705 37.7621 792.06 37.8C785.518 37.6993 779.094 39.5515 773.61 43.12C768.131 46.7611 763.707 51.7789 760.78 57.67C757.532 64.2677 755.914 71.5478 756.06 78.9C755.919 86.2664 757.512 93.5626 760.71 100.2C763.562 106.111 767.904 111.178 773.31 114.9C778.565 118.489 784.797 120.375 791.16 120.3C794.732 120.318 798.281 119.736 801.66 118.58C804.852 117.487 807.86 115.916 810.58 113.92C812.741 112.342 814.685 110.486 816.36 108.4V118.8H837.81V39.45H816.66V49.88ZM807.51 99C804.358 100.943 800.712 101.932 797.01 101.85C793.378 101.926 789.804 100.935 786.73 99C783.704 97.0299 781.281 94.2612 779.73 91C777.96 87.2274 777.087 83.0963 777.18 78.93C777.091 74.8349 777.964 70.7761 779.73 67.08C781.309 63.8373 783.726 61.0754 786.73 59.08C789.78 57.0858 793.356 56.0481 797 56.1C800.712 56.0139 804.367 57.0225 807.51 59C810.539 60.967 812.963 63.7366 814.51 67C816.239 70.724 817.091 74.7951 817 78.9C817.083 83.0718 816.221 87.2082 814.48 91C812.969 94.2778 810.55 97.054 807.51 99Z" fill="black"/>
<path d="M880.56 7.80005H859.26V118.8H880.56V7.80005Z" fill="black"/>
<path d="M962.68 49.0001C959.323 45.4522 955.263 42.6425 950.76 40.7501C946.009 38.7711 940.906 37.7777 935.76 37.8301C930.232 37.7791 924.75 38.826 919.63 40.9101C914.796 42.8827 910.429 45.8464 906.81 49.6101C903.161 53.4349 900.306 57.9451 898.41 62.8801C896.358 68.2403 895.34 73.9409 895.41 79.6801C895.269 87.0406 897.136 94.3004 900.81 100.68C904.394 106.765 909.584 111.747 915.81 115.08C922.203 118.58 929.703 120.33 938.31 120.33C942.018 120.323 945.711 119.87 949.31 118.98C953.049 118.059 956.673 116.717 960.11 114.98C963.588 113.248 966.818 111.055 969.71 108.46L959.46 94.2001C956.684 96.5836 953.544 98.5079 950.16 99.9001C947.087 101.03 943.834 101.589 940.56 101.55C935.962 101.665 931.405 100.663 927.28 98.6301C923.657 96.7925 920.637 93.9534 918.58 90.4501C917.397 88.3999 916.556 86.1707 916.09 83.8501H972.66L972.81 77.2501C973.063 71.8928 972.247 66.5388 970.41 61.5001C968.695 56.8585 966.067 52.6079 962.68 49.0001ZM924.88 58.5301C928.328 56.7421 932.178 55.8709 936.06 56.0001C938.864 55.9559 941.639 56.5725 944.16 57.8001C946.53 58.9758 948.566 60.7298 950.08 62.9001C951.613 65.0629 952.523 67.6054 952.71 70.2501V70.8501H916.26C916.628 69.1932 917.181 67.5831 917.91 66.0501C919.376 62.8592 921.816 60.2157 924.88 58.5001V58.5301Z" fill="black"/>
<path d="M996.51 95.1C994.881 95.0396 993.257 95.3226 991.744 95.9308C990.232 96.5389 988.864 97.4586 987.73 98.63C986.597 99.8443 985.716 101.271 985.137 102.828C984.559 104.385 984.295 106.041 984.36 107.7C984.36 111.8 985.41 114.95 987.51 117.15C989.61 119.35 992.61 120.45 996.51 120.45C998.128 120.516 999.741 120.235 1001.24 119.626C1002.74 119.017 1004.1 118.095 1005.21 116.92C1007.47 114.394 1008.65 111.086 1008.51 107.7C1008.51 103.7 1007.46 100.6 1005.36 98.4C1003.26 96.2 1000.31 95.1 996.51 95.1Z" fill="black"/>
<path d="M1047.5 3.08C1045.2 1.02667 1042 0 1037.91 0C1033.82 0 1030.64 1.07333 1028.38 3.22C1027.22 4.27063 1026.31 5.55944 1025.7 6.99756C1025.09 8.43567 1024.8 9.98886 1024.85 11.55C1024.85 15.25 1026 18.1 1028.31 20.1C1030.62 22.1 1033.82 23.1 1037.91 23.1C1041.91 23.1 1045.08 22.05 1047.43 19.95C1048.6 18.8955 1049.52 17.596 1050.13 16.1441C1050.74 14.6922 1051.03 13.1236 1050.96 11.55C1051.04 9.97076 1050.77 8.39318 1050.17 6.92932C1049.58 5.46546 1048.66 4.15123 1047.5 3.08Z" fill="black"/>
<path d="M1048.71 39.45H1027.41V118.8H1048.71V39.45Z" fill="black"/>
<path d="M1116.65 39.4501H1100.45V19.3501H1079.15V39.4501H1064.31V58.5001H1079.15V118.8H1100.45V58.5001H1116.65V39.4501Z" fill="black"/>
</g>
<defs>
<clipPath id="clip0_82_112">
<rect width="1116.65" height="187" fill="white"/>
</clipPath>
</defs>
</svg>
